<svg width="146" height="214" viewBox="0 0 146 214" fill="none" xmlns="http://www.w3.org/2000/svg">
<path d="M12.0714 201.4C7.31141 201.4 3.91141 198.84 2.95141 194.8L8.31141 193.04C8.75141 194.92 10.1114 196.32 11.9914 196.32C14.2314 196.32 15.1514 194.64 15.1514 192.6V171.8H20.5914V192.12C20.5914 198.04 17.5514 201.4 12.0714 201.4ZM35.1505 201.48C28.3905 201.48 23.0305 196.04 23.0305 189.32C23.0305 182.48 28.3905 177.12 35.1505 177.12C41.8705 177.12 47.2705 182.48 47.2705 189.32C47.2705 196.04 41.8705 201.48 35.1505 201.48ZM35.1505 196.4C38.9905 196.4 41.9505 193.2 41.9505 189.32C41.9505 185.36 38.9905 182.2 35.1505 182.2C31.2705 182.2 28.3505 185.36 28.3505 189.32C28.3505 193.2 31.2705 196.4 35.1505 196.4ZM62.6898 201.48C59.4898 201.48 56.7298 200.2 55.0098 197.96V201H49.6498V171.4H55.0498V180.56C56.6898 178.48 59.4498 177.12 62.6098 177.12C68.4898 177.12 74.1298 181.56 74.1298 189.32C74.1298 197 68.2898 201.48 62.6898 201.48ZM61.7698 196.52C65.7298 196.52 68.8098 193.32 68.8098 189.24C68.8098 185.2 65.7298 182.04 61.7698 182.04C57.7698 182.04 54.8098 185.24 54.8098 189.24C54.8098 193.28 57.7698 196.52 61.7698 196.52ZM89.4086 201.48C86.2086 201.48 83.4486 200.2 81.7286 197.96V201H76.3686V171.4H81.7686V180.56C83.4086 178.48 86.1686 177.12 89.3286 177.12C95.2086 177.12 100.849 181.56 100.849 189.32C100.849 197 95.0086 201.48 89.4086 201.48ZM88.4886 196.52C92.4486 196.52 95.5286 193.32 95.5286 189.24C95.5286 185.2 92.4486 182.04 88.4886 182.04C84.4886 182.04 81.5286 185.24 81.5286 189.24C81.5286 193.28 84.4886 196.52 88.4886 196.52ZM114.883 201.48C107.523 201.48 102.523 196.12 102.523 189.36C102.523 182.52 107.843 177.12 114.683 177.12C121.643 177.12 126.723 182.24 126.723 189.16V191.2H107.683C108.443 194.52 111.043 196.72 114.883 196.72C117.923 196.72 120.243 195.12 121.363 192.6L125.803 195.16C123.763 198.96 120.163 201.48 114.883 201.48ZM114.683 181.88C111.443 181.88 108.923 183.8 107.963 186.68H121.243C120.443 183.52 118.043 181.88 114.683 181.88ZM129.142 201V177.6H134.502V181.08C135.582 178.76 137.582 177.6 140.502 177.6C142.222 177.6 143.542 178 144.622 178.6L142.582 183.72C141.782 183.2 140.902 182.8 139.342 182.8C136.182 182.8 134.542 184.48 134.542 188.52V201H129.142Z" fill="#333333"/>
<g clip-path="url(#clip0_617_95)">
<path d="M73 146C113.317 146 146 113.317 146 73C146 32.6832 113.317 0 73 0C32.6832 0 0 32.6832 0 73C0 113.317 32.6832 146 73 146Z" fill="#2171B5"/>
<path d="M50.8835 39.0019C57.2632 30.9104 68.0004 25.6211 80.2928 25.6211C103.166 25.6211 125.105 42.8922 125.105 73.0792C125.105 102.953 102.388 120.381 80.6035 120.381C68.1546 120.381 57.4196 115.402 50.7292 106.688C34.488 87.1105 34.4943 58.7415 50.7459 39.1707L50.8835 39.0019ZM104.409 72.7665C104.409 57.0507 92.4268 44.7582 77.0237 44.7582C61.4643 44.7582 49.9495 57.207 49.9495 72.7665C49.9495 88.4823 61.4643 101.085 77.0237 101.085C92.4289 101.085 104.409 88.6387 104.409 72.7665Z" fill="white"/>
</g>
<defs>
<clipPath id="clip0_617_95">
<rect width="146" height="146" fill="white"/>
</clipPath>
</defs>
</svg>
